<?xml version="1.0" standalone="no"?>
<!DOCTYPE svg PUBLIC "-//W3C//DTD SVG 20010904//EN"
 "http://www.w3.org/TR/2001/REC-SVG-20010904/DTD/svg10.dtd">
<svg version="1.0" xmlns="http://www.w3.org/2000/svg"
 width="768.000000pt" height="768.000000pt" viewBox="0 0 768.000000 768.000000"
 preserveAspectRatio="xMidYMid meet">
<metadata>
Created by potrace 1.15, written by Peter Selinger 2001-2017
</metadata>
<g transform="translate(0.000000,768.000000) scale(0.100000,-0.100000)"
fill="#000000" stroke="none">
<path d="M2630 7273 c-19 -8 -402 -155 -850 -325 -448 -170 -819 -313 -824
-318 -5 -5 -51 -1061 -102 -2347 -51 -1286 -94 -2349 -96 -2362 -3 -23 31 -33
2071 -602 l2073 -578 857 325 c471 179 860 329 865 334 11 11 199 4722 188
4731 -5 4 -4047 1133 -4132 1154 -8 2 -31 -4 -50 -12z m1640 -1068 c861 -239
1569 -437 1575 -439 5 -1 -40 -21 -100 -45 -80 -31 -118 -41 -140 -36 -16 3
-687 189 -1490 413 l-1460 407 -3 74 -3 74 28 -6 c15 -3 732 -202 1593 -442z
m-400 -675 c657 -183 1198 -336 1201 -339 3 -3 -8 -354 -25 -780 l-31 -774
-1249 -359 c-687 -197 -1251 -356 -1254 -353 -3 2 21 649 52 1437 31 788 56
1450 56 1472 0 36 1 38 28 34 15 -3 565 -155 1222 -338z m1087 -3365 c-20
-490 -36 -789 -42 -789 -36 6 -2795 779 -2795 784 0 3 645 191 1433 417 1193
342 1432 408 1434 394 1 -9 -12 -371 -30 -806z"/>
<animate attributeName="cx" from="0" to="100" dur="5s" repeatCount="indefinite" />
</g>
</svg>
